{
    "asset" : {
        "generator" : "Khronos glTF Blender I/O v3.2.40",
        "version" : "2.0"
    },
    "scene" : 0,
    "scenes" : [
        {
            "name" : "Scene",
            "nodes" : [
                0,
                1,
                2,
                3,
                4,
                5
            ]
        }
    ],
    "nodes" : [
        {
            "mesh" : 0,
            "name" : "head"
        },
        {
            "name" : "Empty",
            "rotation" : [
                0.7071068286895752,
                0,
                0,
                0.7071068286895752
            ]
        },
        {
            "mesh" : 1,
            "name" : "body",
            "scale" : [
                0.5136392712593079,
                0.5136392712593079,
                0.5136392712593079
            ],
            "translation" : [
                0.01846127398312092,
                -1.1491010189056396,
                0.00025721860583871603
            ]
        },
        {
            "mesh" : 2,
            "name" : "shirt",
            "scale" : [
                0.5314120054244995,
                0.5314120054244995,
                0.5314120054244995
            ],
            "translation" : [
                0.01847262866795063,
                -1.1408827304840088,
                -0.0013699906412512064
            ]
        },
        {
            "name" : "Empty.001",
            "rotation" : [
                0.7071068286895752,
                0,
                0,
                0.7071068286895752
            ],
            "translation" : [
                -3.810140609741211,
                0.02215198241174221,
                0
            ]
        },
        {
            "mesh" : 3,
            "name" : "Plane",
            "scale" : [
                11.543243408203125,
                11.543243408203125,
                11.543243408203125
            ],
            "translation" : [
                0.02881312370300293,
                -2.2793772220611572,
                1.556941270828247
            ]
        }
    ],
    "materials" : [
        {
            "doubleSided" : true,
            "name" : "Frog_material",
            "pbrMetallicRoughness" : {
                "baseColorTexture" : {
                    "index" : 0
                },
                "metallicFactor" : 0,
                "roughnessFactor" : 0.5
            }
        },
        {
            "doubleSided" : true,
            "name" : "bg",
            "pbrMetallicRoughness" : {
                "baseColorFactor" : [
                    0.2148672342300415,
                    0.5759544372558594,
                    0.4364284574985504,
                    1
                ],
                "metallicFactor" : 0,
                "roughnessFactor" : 0.5
            }
        }
    ],
    "meshes" : [
        {
            "name" : "Roundcube",
            "primitives" : [
                {
                    "attributes" : {
                        "POSITION" : 0,
                        "NORMAL" : 1,
                        "TEXCOORD_0" : 2
                    },
                    "indices" : 3,
                    "material" : 0
                }
            ]
        },
        {
            "name" : "Roundcube.001",
            "primitives" : [
                {
                    "attributes" : {
                        "POSITION" : 4,
                        "NORMAL" : 5,
                        "TEXCOORD_0" : 6
                    },
                    "indices" : 7,
                    "material" : 0
                }
            ]
        },
        {
            "name" : "Roundcube.002",
            "primitives" : [
                {
                    "attributes" : {
                        "POSITION" : 8,
                        "NORMAL" : 9,
                        "TEXCOORD_0" : 10
                    },
                    "indices" : 11,
                    "material" : 0
                }
            ]
        },
        {
            "name" : "Plane",
            "primitives" : [
                {
                    "attributes" : {
                        "POSITION" : 12,
                        "NORMAL" : 13,
                        "TEXCOORD_0" : 14
                    },
                    "indices" : 15,
                    "material" : 1
                }
            ]
        }
    ],
    "textures" : [
        {
            "sampler" : 0,
            "source" : 0
        }
    ],
    "images" : [
        {
            "bufferView" : 4,
            "mimeType" : "image/png",
            "name" : "Frog_texture"
        }
    ],
    "accessors" : [
        {
            "bufferView" : 0,
            "componentType" : 5126,
            "count" : 214,
            "max" : [
                1.1392465829849243,
                1.290949821472168,
                1
            ],
            "min" : [
                -1.1392465829849243,
                -0.800000011920929,
                -1
            ],
            "type" : "VEC3"
        },
        {
            "bufferView" : 1,
            "componentType" : 5126,
            "count" : 214,
            "type" : "VEC3"
        },
        {
            "bufferView" : 2,
            "componentType" : 5126,
            "count" : 214,
            "type" : "VEC2"
        },
        {
            "bufferView" : 3,
            "componentType" : 5123,
            "count" : 1056,
            "type" : "SCALAR"
        },
        {
            "bufferView" : 5,
            "componentType" : 5126,
            "count" : 362,
            "max" : [
                2.1085517406463623,
                0.8858858942985535,
                0.9300200939178467
            ],
            "min" : [
                -2.1085517406463623,
                -2.213350296020508,
                -0.9586219191551208
            ],
            "type" : "VEC3"
        },
        {
            "bufferView" : 6,
            "componentType" : 5126,
            "count" : 362,
            "type" : "VEC3"
        },
        {
            "bufferView" : 7,
            "componentType" : 5126,
            "count" : 362,
            "type" : "VEC2"
        },
        {
            "bufferView" : 8,
            "componentType" : 5123,
            "count" : 1524,
            "type" : "SCALAR"
        },
        {
            "bufferView" : 9,
            "componentType" : 5126,
            "count" : 138,
            "max" : [
                1.5421175956726074,
                0.9120755195617676,
                1.0004429817199707
            ],
            "min" : [
                -1.5421175956726074,
                -0.8210939168930054,
                -1.0397852659225464
            ],
            "type" : "VEC3"
        },
        {
            "bufferView" : 10,
            "componentType" : 5126,
            "count" : 138,
            "type" : "VEC3"
        },
        {
            "bufferView" : 11,
            "componentType" : 5126,
            "count" : 138,
            "type" : "VEC2"
        },
        {
            "bufferView" : 12,
            "componentType" : 5123,
            "count" : 624,
            "type" : "SCALAR"
        },
        {
            "bufferView" : 13,
            "componentType" : 5126,
            "count" : 6,
            "max" : [
                1,
                1.6790192127227783,
                1
            ],
            "min" : [
                -1,
                0,
                -1
            ],
            "type" : "VEC3"
        },
        {
            "bufferView" : 14,
            "componentType" : 5126,
            "count" : 6,
            "type" : "VEC3"
        },
        {
            "bufferView" : 15,
            "componentType" : 5126,
            "count" : 6,
            "type" : "VEC2"
        },
        {
            "bufferView" : 16,
            "componentType" : 5123,
            "count" : 12,
            "type" : "SCALAR"
        }
    ],
    "bufferViews" : [
        {
            "buffer" : 0,
            "byteLength" : 2568,
            "byteOffset" : 0
        },
        {
            "buffer" : 0,
            "byteLength" : 2568,
            "byteOffset" : 2568
        },
        {
            "buffer" : 0,
            "byteLength" : 1712,
            "byteOffset" : 5136
        },
        {
            "buffer" : 0,
            "byteLength" : 2112,
            "byteOffset" : 6848
        },
        {
            "buffer" : 0,
            "byteLength" : 129947,
            "byteOffset" : 8960
        },
        {
            "buffer" : 0,
            "byteLength" : 4344,
            "byteOffset" : 138908
        },
        {
            "buffer" : 0,
            "byteLength" : 4344,
            "byteOffset" : 143252
        },
        {
            "buffer" : 0,
            "byteLength" : 2896,
            "byteOffset" : 147596
        },
        {
            "buffer" : 0,
            "byteLength" : 3048,
            "byteOffset" : 150492
        },
        {
            "buffer" : 0,
            "byteLength" : 1656,
            "byteOffset" : 153540
        },
        {
            "buffer" : 0,
            "byteLength" : 1656,
            "byteOffset" : 155196
        },
        {
            "buffer" : 0,
            "byteLength" : 1104,
            "byteOffset" : 156852
        },
        {
            "buffer" : 0,
            "byteLength" : 1248,
            "byteOffset" : 157956
        },
        {
            "buffer" : 0,
            "byteLength" : 72,
            "byteOffset" : 159204
        },
        {
            "buffer" : 0,
            "byteLength" : 72,
            "byteOffset" : 159276
        },
        {
            "buffer" : 0,
            "byteLength" : 48,
            "byteOffset" : 159348
        },
        {
            "buffer" : 0,
            "byteLength" : 24,
            "byteOffset" : 159396
        }
    ],
    "samplers" : [
        {
            "magFilter" : 9728,
            "minFilter" : 9984
        }
    ],
    "buffers" : [
        {
            "byteLength" : 159420,
            "uri" : "data:application/octet-stream;base64,"
        }
    ]
}
